<svg width="976" height="236" viewBox="0 0 976 236" fill="none" xmlns="http://www.w3.org/2000/svg">
<path d="M245 166.979V67.989H312.166C319.816 67.989 326.446 69.06 332.056 71.2019C337.768 73.2419 342.205 76.5059 345.367 80.9938C348.529 85.3798 350.11 91.0407 350.11 97.9766C350.11 102.669 349.294 106.647 347.662 109.91C346.03 113.174 343.735 115.826 340.777 117.866C337.921 119.906 334.606 121.487 330.832 122.609C327.058 123.629 323.029 124.292 318.745 124.598L316.603 123.374C323.743 123.476 329.608 124.088 334.198 125.21C338.788 126.23 342.205 128.168 344.449 131.024C346.795 133.778 347.968 137.909 347.968 143.417V166.979H327.619V144.794C327.619 141.02 326.956 138.113 325.63 136.073C324.304 133.931 321.907 132.452 318.439 131.636C315.073 130.82 310.177 130.412 303.751 130.412H265.349V166.979H245ZM265.349 114.5H312.166C317.878 114.5 322.213 113.123 325.171 110.369C328.231 107.616 329.761 103.893 329.761 99.2006C329.761 94.7127 328.231 91.2957 325.171 88.9497C322.213 86.6038 317.878 85.4308 312.166 85.4308H265.349V114.5Z" fill="white"/>
<path d="M386.856 145.406V128.423H452.339V145.406H386.856ZM362.223 166.979L408.734 67.989H430.766L477.737 166.979H455.552L414.854 77.7809H424.646L384.255 166.979H362.223Z" fill="white"/>
<path d="M592.495 146.783L586.069 149.384V67.989H606.418V166.979H586.069L506.051 88.7967L512.477 86.1958V166.979H492.128V67.989H512.477L592.495 146.783Z" fill="white"/>
<path d="M686.951 168.968C677.771 168.968 669.458 167.897 662.012 165.755C654.668 163.613 648.293 160.4 642.887 156.116C637.583 151.832 633.503 146.528 630.647 140.204C627.792 133.88 626.364 126.587 626.364 118.325C626.364 109.961 627.843 102.567 630.8 96.1406C633.86 89.6127 638.144 84.1048 643.652 79.6168C649.262 75.1289 655.892 71.7629 663.542 69.519C671.294 67.173 679.862 66 689.246 66C700.364 66 709.952 67.581 718.009 70.7429C726.067 73.8029 732.391 78.1379 736.981 83.7478C741.673 89.3577 744.325 96.0386 744.937 103.791H725.353C724.027 99.7106 721.834 96.1916 718.774 93.2337C715.816 90.1737 711.89 87.8277 706.994 86.1958C702.098 84.4618 696.182 83.5948 689.246 83.5948C680.372 83.5948 672.773 85.0228 666.449 87.8787C660.227 90.7347 655.484 94.7637 652.22 99.9656C648.956 105.168 647.324 111.287 647.324 118.325C647.324 125.159 648.752 131.075 651.608 136.073C654.464 140.969 658.85 144.743 664.766 147.395C670.784 150.047 678.434 151.373 687.716 151.373C694.856 151.373 701.129 150.455 706.535 148.619C712.043 146.681 716.632 144.131 720.304 140.969C723.976 137.705 726.577 134.084 728.107 130.106L736.063 127.199C734.737 140.357 729.739 150.608 721.069 157.952C712.502 165.296 701.129 168.968 686.951 168.968ZM730.861 166.979C730.861 163.817 731.065 160.196 731.473 156.116C731.881 151.934 732.391 147.752 733.003 143.57C733.615 139.286 734.176 135.359 734.686 131.789H689.399V118.784H748.456V166.979H730.861Z" fill="white"/>
<path d="M790.234 125.669V149.996H866.58V166.979H769.885V67.989H866.427V84.9718H790.234V109.604H852.657V125.669H790.234Z" fill="white"/>
<path d="M880.894 133.625H901.549C901.957 137.093 903.538 140.255 906.292 143.111C909.148 145.865 912.871 148.058 917.461 149.69C922.051 151.22 927.201 151.985 932.913 151.985C938.115 151.985 942.399 151.424 945.765 150.302C949.131 149.18 951.63 147.599 953.262 145.559C954.894 143.519 955.71 141.071 955.71 138.215C955.71 135.461 954.69 133.37 952.65 131.942C950.61 130.412 947.397 129.188 943.011 128.27C938.625 127.25 932.862 126.23 925.722 125.21C920.113 124.394 914.809 123.272 909.811 121.844C904.813 120.314 900.376 118.376 896.5 116.03C892.726 113.684 889.717 110.828 887.473 107.463C885.331 103.995 884.26 99.9146 884.26 95.2227C884.26 89.4087 885.892 84.3088 889.156 79.9228C892.522 75.5369 897.469 72.1199 903.997 69.672C910.525 67.224 918.532 66 928.017 66C942.297 66 953.262 69.06 960.912 75.1799C968.664 81.1978 972.438 89.5107 972.234 100.119H952.344C951.936 94.1007 949.386 89.7657 944.694 87.1138C940.104 84.4618 934.29 83.1358 927.252 83.1358C920.725 83.1358 915.319 84.1048 911.035 86.0428C906.853 87.9807 904.762 91.2957 904.762 95.9876C904.762 97.8236 905.272 99.4556 906.292 100.884C907.312 102.21 909.046 103.383 911.494 104.403C913.942 105.423 917.257 106.392 921.439 107.31C925.62 108.228 930.822 109.145 937.044 110.063C942.858 110.879 948.111 112.001 952.803 113.429C957.597 114.755 961.677 116.54 965.043 118.784C968.511 120.926 971.163 123.68 972.999 127.046C974.835 130.412 975.753 134.543 975.753 139.439C975.753 145.457 974.172 150.71 971.01 155.198C967.95 159.584 963.156 163.001 956.628 165.449C950.202 167.897 941.838 169.121 931.536 169.121C924.192 169.121 917.716 168.356 912.106 166.826C906.496 165.194 901.651 163.052 897.571 160.4C893.491 157.748 890.176 154.841 887.626 151.679C885.076 148.517 883.24 145.355 882.118 142.193C881.098 139.031 880.69 136.175 880.894 133.625Z" fill="white"/>
<path fill-rule="evenodd" clip-rule="evenodd" d="M93.8883 2.73198C89.1691 5.52828 84.4469 8.31947 79.7217 11.1055C73.0967 15.0158 66.4764 18.9339 59.8607 22.8599C54.208 26.216 48.083 29.841 46.2497 30.9157C43.7001 32.4129 41.1539 33.9156 38.6109 35.424C36.2428 36.829 31.3679 39.6987 27.7776 41.8009C23.7951 44.1333 19.8137 46.4674 15.8332 48.8033C13.1287 50.3919 10.4216 51.976 7.71189 53.5558C6.22413 54.4205 5.00552 55.1919 5.00358 55.2702C5.00163 55.3486 7.96856 57.1844 11.5971 59.3502L25.1387 67.4338C28.9581 69.7138 35.0078 73.3465 38.5828 75.5062C42.1575 77.6662 45.2047 79.4334 45.3544 79.4334C45.5042 79.4334 46.3291 79.0351 47.188 78.5481C50.2466 76.8145 67.7332 66.6904 73.3329 63.4113C76.4304 61.5974 79.5322 59.7908 82.6384 57.9916C84.6245 56.8449 89.1078 54.255 92.6013 52.2361C96.0949 50.2175 99.1213 48.6303 99.3268 48.7092C99.7088 48.8558 109.729 54.65 118.194 59.6194C120.791 61.1441 127.791 65.2474 133.749 68.7379C138.195 71.3412 142.639 73.9462 147.082 76.5529C149 77.6765 150.92 78.7949 152.843 79.9081L156.104 81.7945L156.107 113.079L156.11 144.364L159.096 146.118C160.739 147.083 164.207 149.139 166.804 150.686C174.151 155.064 181.512 159.417 188.888 163.746C192.478 165.852 195.882 167.868 196.451 168.226C197.021 168.584 197.615 168.877 197.772 168.877C197.964 168.877 198.033 151.015 197.985 113.28L197.915 57.6838L189.027 52.493C182.503 48.6866 175.975 44.8874 169.443 41.0956C162.864 37.2766 156.29 33.4492 149.721 29.6135C144.756 26.7115 138.759 23.2182 136.395 21.8505C134.031 20.4827 131.218 18.8338 130.145 18.1866C129.072 17.5391 126.569 16.0749 124.583 14.933C122.596 13.7908 117.534 10.8522 113.333 8.40249C103.141 2.46003 98.8132 -0.0127284 98.6263 4.92491e-05C98.5413 0.00560477 96.4091 1.23504 93.8883 2.73198ZM97.916 14.3952C97.4577 14.6747 95.2702 15.9669 93.055 17.2669C88.5168 19.9332 83.9798 22.6015 79.4439 25.2718C69.1762 31.3154 64.514 34.0515 57.9163 37.9054C51.9813 41.372 49.4666 42.8464 45.833 44.9889C44.0761 46.025 40.0136 48.3997 36.8053 50.2664C33.597 52.133 30.1231 54.1552 29.0856 54.7605L27.1993 55.8608L31.4467 58.3061C33.7828 59.651 37.797 62.0071 40.3672 63.5421L45.04 66.3329L48.5616 64.2335C50.4983 63.0791 56.6455 59.4472 62.2218 56.1625C67.7982 52.878 74.7981 48.7542 77.7773 46.9986C80.7564 45.2428 85.4439 42.4887 88.1939 40.8778C90.8563 39.3189 93.5148 37.7531 96.1691 36.1804L99.1441 34.4115L100.197 35.097C100.776 35.474 103.499 37.082 106.249 38.6701C110.328 41.0259 126.223 50.3556 142.777 60.1105C144.626 61.1997 146.478 62.2851 148.332 63.3666C151.995 65.4999 157.595 68.7877 163.185 72.086L167.916 74.8773L168.054 107.21L168.193 139.543L174.582 143.368C178.096 145.472 182.152 147.916 183.596 148.799C185.039 149.682 186.321 150.447 186.443 150.498C186.565 150.549 186.665 131.278 186.665 107.675V64.7591L184.79 63.713C183.759 63.1377 177.166 59.2958 170.138 55.1758C163.11 51.0555 156.61 47.25 155.693 46.7192C154.777 46.1884 153.652 45.5225 153.193 45.2397C152.735 44.957 151.86 44.4556 151.249 44.1256C150.638 43.7953 149.138 42.9353 147.916 42.2142C146.693 41.4931 142.194 38.8681 137.916 36.3806C133.638 33.8932 128.388 30.8323 126.249 29.5787C122.039 27.1175 117.826 24.6611 113.61 22.2096C108.798 19.4099 103.636 16.3902 102.139 15.4988C99.1044 13.6916 99.0813 13.6855 97.916 14.3952ZM0 117.645V170.829L1.04166 170.164C1.96888 169.572 10.3563 164.615 23.8887 156.661C30.5848 152.725 35.6262 149.756 38.5348 148.034L41.0975 146.516L41.1042 117.452L41.1108 88.3884L37.5692 86.3084C35.6214 85.1642 31.2151 82.6287 27.7776 80.6737C24.3401 78.7187 19.0902 75.6829 16.111 73.9279C13.1319 72.1726 9.56938 70.0832 8.19439 69.2849C6.40825 68.2453 4.62584 67.1992 2.8472 66.1468L0 64.4602V117.645ZM94.5672 69.2435C89.7047 72.0849 78.7425 78.4476 69.444 83.8259C63.489 87.2703 57.6146 90.6933 55.9024 91.7169L54.9996 92.2564V142.469L59.6524 145.216C62.2113 146.727 67.3676 149.749 71.1106 151.932C74.8537 154.115 80.1661 157.236 82.9161 158.868C89.2419 162.62 97.7194 167.582 98.5546 168.021C99.1327 168.324 99.7277 168.045 104.805 165.095C111.742 161.063 113.856 159.826 118.61 157.015C124.838 153.335 129.308 150.822 129.629 150.822C129.797 150.822 132.229 152.173 135.036 153.825C137.842 155.478 141.104 157.36 142.284 158.008C143.465 158.656 144.495 159.291 144.573 159.418C144.767 159.732 99.8802 186.655 99.1624 186.655C98.8663 186.655 89.98 181.569 76.6662 173.78C70.9351 170.427 64.1893 166.517 55.9719 161.786C53.5274 160.379 50.2027 158.462 48.5836 157.526L45.6394 155.825L34.2781 162.52C11.0574 176.204 6.78107 178.717 5.76607 179.277C5.19441 179.592 4.7258 179.928 4.72441 180.023C4.72219 180.198 6.64829 181.355 14.861 186.114C17.3054 187.53 20.6804 189.5 22.361 190.491C24.0415 191.482 25.854 192.539 26.3887 192.839C27.564 193.499 44.69 203.475 49.1663 206.107C57.6263 211.081 73.7001 220.471 76.2495 221.928C76.7078 222.19 82.0464 225.297 88.1133 228.832L99.1438 235.259L101.724 233.652C104.406 231.982 109.705 228.809 121.527 221.796C125.346 219.53 132.784 215.092 138.055 211.934C143.325 208.776 149.825 204.898 152.499 203.317C155.173 201.736 163.235 196.931 170.416 192.638C177.596 188.347 186.311 183.151 189.782 181.092C193.253 179.034 196.097 177.267 196.101 177.166C196.111 176.95 184.789 170.266 184.414 170.266C184.275 170.266 182.631 171.226 180.76 172.4C178.89 173.574 173.547 176.808 168.888 179.588C159.657 185.095 128.213 203.945 125.971 205.316C120.817 208.469 99.6357 221.149 99.3268 221.268C99.1177 221.348 95.9022 219.638 92.1813 217.467C75.406 207.683 58.6139 197.928 41.8053 188.201C25.449 178.736 26.8548 179.633 27.7026 179.198C28.1256 178.981 32.0584 176.757 36.4417 174.255C40.825 171.753 44.6022 169.633 44.8355 169.543C45.0864 169.447 46.7697 170.28 48.9494 171.578C53.4649 174.269 56.2996 175.926 79.9853 189.723C90.29 195.725 98.8555 200.636 99.0196 200.636C99.1838 200.636 103.94 197.848 109.589 194.44C118.152 189.275 126.715 184.108 135.277 178.941C143.756 173.825 154.353 167.446 158.825 164.766L166.957 159.893L165.214 158.878C164.255 158.32 159.971 155.799 155.693 153.277C151.416 150.755 147.166 148.251 146.249 147.713C143.076 145.849 139.905 143.983 136.734 142.116L128.885 137.496L124.789 139.891C122.537 141.208 118.131 143.812 114.999 145.678C111.867 147.544 107.43 150.169 105.138 151.511C102.847 152.854 100.573 154.191 100.085 154.483L99.1994 155.013L95.5022 152.873C92.8281 151.32 90.1605 149.756 87.4994 148.181C85.1314 146.778 79.4125 143.409 74.7912 140.695L66.3885 135.759L66.3923 117.527L66.3962 99.2944L70.2118 97.0872C77.3984 92.9297 88.1939 86.5973 93.4911 83.432C99.1135 80.0723 99.3621 79.9784 100.512 80.7817C101.394 81.3981 109.509 86.2645 119.999 92.4678C124.201 94.9522 128.326 97.4441 129.166 98.0052L130.694 99.0258L130.765 114.349L130.837 129.672L134.654 131.882C136.754 133.098 139.096 134.436 139.86 134.856C140.624 135.275 141.405 135.742 141.596 135.893C141.874 136.112 141.942 131.693 141.937 113.981L141.93 91.7944L139.645 90.4306C137.098 88.9103 121.273 79.579 118.888 78.1909C116.803 76.9729 114.72 75.752 112.638 74.5285C101.721 68.1168 99.2099 66.6557 99.106 66.6557C99.0457 66.6557 97.0033 67.8202 94.5672 69.2435ZM11.111 117.464C11.111 154.165 11.0024 151.592 12.4999 150.408C12.7291 150.227 15.7916 148.344 19.3054 146.224C22.8193 144.103 26.4443 141.913 27.3609 141.356L29.0276 140.344L29.0987 117.4L29.1698 94.4564L25.7654 92.4672C22.8218 90.7431 19.8814 89.0133 16.9443 87.2781C13.9652 85.5184 11.4338 84.0262 11.3194 83.9617C11.2049 83.8976 11.111 98.9733 11.111 117.464Z" fill="white"/>
</svg>
