<svg width="310" height="123" viewBox="0 0 310 123" fill="none" xmlns="http://www.w3.org/2000/svg">
<path fill-rule="evenodd" clip-rule="evenodd" d="M20.8509 36.7715C19.8212 37.3664 17.2319 38.8627 15.0969 40.0966C7.66903 44.3893 3.17214 46.9869 2.32938 47.4717C1.86292 47.74 1.493 47.993 1.50734 48.034C1.53831 48.1226 9.50006 52.7799 9.72923 52.8434C9.88295 52.8861 10.652 52.4526 18.9545 47.6429C20.85 46.5448 22.4993 45.6015 22.6196 45.5467C22.8145 45.4579 23.0365 45.5618 24.6533 46.4989C28.0722 48.4803 29.8495 49.5057 31.7877 50.6148C32.8546 51.2253 33.7278 51.7454 33.7281 51.7705C33.729 51.845 30.5615 53.5978 30.4259 53.5978C30.3576 53.5978 30.0146 53.4299 29.6637 53.2246C26.7426 51.5154 22.8656 49.3036 22.7909 49.3036C22.7403 49.3036 22.1085 49.6463 21.3869 50.0651C19.364 51.2393 14.166 54.2358 13.0218 54.8873L11.9972 55.4709L11.9943 61.6937L11.9915 67.9165L13.3844 68.721C14.1505 69.1634 15.1472 69.7411 15.5993 70.0048C16.0514 70.2685 17.8509 71.3119 19.5982 72.3236L22.775 74.1631L23.48 73.7638C23.8678 73.5441 25.5593 72.5694 27.2391 71.5976C28.9189 70.6258 30.3418 69.8307 30.4012 69.8307C30.5791 69.8307 33.7259 71.6381 33.6566 71.7005C33.6215 71.7322 32.894 72.1593 32.04 72.6498C30.2157 73.6973 29.1307 74.3238 25.555 76.3942C24.0982 77.2377 22.8596 77.9288 22.8026 77.9299C22.7456 77.931 22.2318 77.662 21.6609 77.332C21.0899 77.0021 18.9582 75.7692 16.9237 74.5922C14.8891 73.4152 12.4561 72.0106 11.517 71.4707L9.80942 70.489L5.85407 72.7889C3.6786 74.0539 1.78674 75.1578 1.64992 75.242L1.40112 75.3951L2.56329 76.0726C3.20247 76.4452 5.12292 77.5574 6.83092 78.544C8.53893 79.5307 12.0942 81.5853 14.7316 83.1099C17.3689 84.6344 20.2621 86.3057 21.1608 86.8237L22.7949 87.7656L25.0426 86.476C26.279 85.7668 27.4754 85.0741 27.7014 84.9368C27.9275 84.7994 29.325 83.9886 30.8069 83.1348C35.7048 80.3133 40.7072 77.422 41.3563 77.0376C41.708 76.8293 42.602 76.3128 43.3429 75.8898C44.0838 75.4669 44.6889 75.0989 44.6874 75.0721C44.6824 74.9854 42.3846 73.7433 42.2844 73.7732C42.1962 73.7995 40.5057 74.7707 34.7801 78.0844C23.7808 84.4502 22.9288 84.9367 22.7797 84.9367C22.7183 84.9367 21.7351 84.3971 20.595 83.7376C19.4549 83.078 17.8644 82.1586 17.0607 81.6943C16.2569 81.2299 14.5717 80.2556 13.3159 79.5291C12.06 78.8026 10.0049 77.6189 8.749 76.8987C7.49312 76.1784 6.41077 75.5392 6.34382 75.4782C6.24499 75.388 6.29642 75.3249 6.61783 75.1415C6.83549 75.0174 7.63012 74.5541 8.38365 74.112C9.13718 73.67 9.79481 73.3091 9.84505 73.31C9.89528 73.311 11.0872 73.9788 12.4938 74.794C15.0265 76.262 18.2819 78.1447 21.2417 79.8532C22.5995 80.637 22.7971 80.7256 22.9771 80.6316C23.0888 80.5731 24.6394 79.6818 26.4227 78.6508C28.2061 77.6199 30.2406 76.4449 30.9439 76.0397C35.7586 73.2664 38.4306 71.697 38.4527 71.6297C38.4668 71.5866 37.0914 70.7737 35.3961 69.8231C33.7009 68.8727 31.8842 67.8489 31.3589 67.5482C30.4487 67.0271 30.3929 67.0078 30.1715 67.1366C25.7983 69.6808 22.8849 71.3478 22.8071 71.3503C22.7525 71.3521 21.725 70.7858 20.5236 70.092C19.3223 69.3982 17.5174 68.357 16.5127 67.7783C15.5079 67.1995 14.6137 66.664 14.5253 66.5884C14.3752 66.4598 14.3661 66.1354 14.3882 61.6517L14.4119 56.8525L17.015 55.3502C18.4467 54.5239 20.3339 53.4348 21.2087 52.93L22.7994 52.0123L23.1268 52.2019C28.3915 55.2509 30.3098 56.3389 30.4212 56.3389C30.4963 56.3389 31.6721 55.7074 33.0342 54.9356C34.3964 54.1639 36.1976 53.1467 37.0371 52.6753C37.8766 52.204 38.5342 51.79 38.4985 51.7554C38.4359 51.695 37.2654 51.0161 31.9486 47.9567C30.5923 47.1762 29.1537 46.345 28.7518 46.1094C26.1257 44.5703 22.8781 42.7252 22.7955 42.7252C22.7416 42.7252 22.1895 43.0195 21.5688 43.3791C20.9481 43.7388 19.9134 44.3361 19.2696 44.7064C18.6258 45.0767 16.2135 46.4677 13.909 47.7974L9.71882 50.215L7.95519 49.1844C6.98519 48.6175 6.1964 48.1153 6.20234 48.0682C6.20828 48.0212 7.52353 47.2265 9.12512 46.3022C10.7267 45.3779 13.6195 43.7072 15.5536 42.5894C17.4877 41.4717 19.9048 40.0762 20.9251 39.4884L22.7801 38.4196L23.2998 38.711C23.8313 39.0088 27.5937 41.1772 32.725 44.1427C34.3074 45.0573 37.1133 46.6786 38.9602 47.7457L42.3184 49.6858L43.5123 49.0277C44.2135 48.6412 44.6726 48.3358 44.6246 48.2879C44.5798 48.243 43.6616 47.699 42.5844 47.0792C41.507 46.4593 39.0021 45.014 37.0178 43.8675C35.0335 42.7211 32.6496 41.3443 31.7203 40.8081C29.4331 39.4885 24.8459 36.8387 23.7519 36.2053C23.2626 35.9218 22.8308 35.6899 22.7925 35.6899C22.7543 35.6899 21.8805 36.1767 20.8509 36.7715ZM0.208984 61.7295C0.208984 68.212 0.236109 73.5158 0.269264 73.5158C0.30242 73.5158 2.21365 72.417 4.51644 71.0742L8.70333 68.6325V61.7112V54.7898L8.49782 54.6614C7.63679 54.1235 0.375858 49.9432 0.302423 49.9432C0.239218 49.9432 0.208984 53.756 0.208984 61.7295ZM4.51599 55.1136L6.32857 56.1727V61.7236V67.2746L4.52466 68.3288C3.53256 68.9085 2.68997 69.3647 2.65225 69.3425C2.56831 69.2931 2.55964 54.0547 2.64358 54.0547C2.67646 54.0547 3.51904 54.5313 4.51599 55.1136Z" fill="white"/>
<path d="M62.3813 77.6522V45.8031L69.6801 38.5044H89.5857L96.6191 45.5377V49.7843H91.5763V47.1965L87.3298 43.0163H71.9361L67.4241 47.4619V75.9934L71.9361 80.439H87.3298L91.5763 76.2588V73.6711H96.6191V77.9176L89.5857 84.9509H69.6801L62.3813 77.6522Z" fill="white"/>
<path d="M106.231 38.5044H136.222V43.0163H111.274V59.339H134.298V63.8509H111.274V80.439H136.222V84.9509H106.231V38.5044Z" fill="white"/>
<path d="M179.088 70.7516V84.9509H174.045V72.145L167.675 65.4434H151.22V84.9509H146.177V38.5044H172.718L178.822 44.6088V59.2726L173.448 64.6472L179.088 70.7516ZM151.22 61.0641H170.528L173.846 57.8129V46.1349L170.528 42.8836H151.22V61.0641Z" fill="white"/>
<path d="M190.724 38.5044H220.715V43.0163H195.766V59.339H218.791V63.8509H195.766V80.439H220.715V84.9509H190.724V38.5044Z" fill="white"/>
<path d="M263.58 70.7516V84.9509H258.538V72.145L252.168 65.4434H235.712V84.9509H230.67V38.5044H257.211L263.315 44.6088V59.2726L257.94 64.6472L263.58 70.7516ZM235.712 61.0641H255.021L258.339 57.8129V46.1349L255.021 42.8836H235.712V61.0641Z" fill="white"/>
<path d="M287.757 38.5044H293.198L309.719 84.9509H304.478L300.165 72.4104H280.79L276.477 84.9509H271.235L287.757 38.5044ZM298.705 68.0311L290.544 44.3434H290.411L282.316 68.0311H298.705Z" fill="white"/>
</svg>
