<svg width="818" height="818" viewBox="0 0 818 818" fill="none" xmlns="http://www.w3.org/2000/svg">
<rect width="818" height="818" rx="179.736" fill="black"/>
<path fill-rule="evenodd" clip-rule="evenodd" d="M395.657 119.886C383.762 126.935 371.859 133.97 359.949 140.993C343.25 150.849 326.562 160.725 309.887 170.621C295.638 179.081 280.199 188.218 275.578 190.927C269.152 194.701 262.734 198.489 256.324 202.291C250.355 205.832 238.067 213.066 229.017 218.365C218.979 224.244 208.943 230.127 198.91 236.015C192.093 240.019 185.269 244.012 178.439 247.994C174.689 250.174 171.617 252.118 171.612 252.316C171.607 252.513 179.086 257.141 188.232 262.6L222.365 282.975C231.993 288.722 247.242 297.879 256.253 303.323C265.263 308.768 272.944 313.222 273.322 313.222C273.699 313.222 275.779 312.218 277.943 310.991C285.653 306.621 329.73 281.102 343.845 272.836C351.653 268.264 359.471 263.71 367.301 259.175C372.307 256.285 383.608 249.757 392.414 244.668C401.22 239.58 408.848 235.579 409.366 235.778C410.329 236.147 435.585 250.752 456.922 263.278C463.469 267.122 481.113 277.464 496.132 286.263C507.337 292.825 518.54 299.391 529.74 305.961C534.573 308.794 539.413 311.613 544.261 314.419L552.48 319.174L552.488 398.031L552.496 476.888L560.022 481.31C564.163 483.742 572.906 488.923 579.452 492.823C597.969 503.859 616.524 514.832 635.116 525.743C644.165 531.051 652.745 536.132 654.181 537.035C655.618 537.938 657.115 538.677 657.509 538.677C657.994 538.677 658.168 493.652 658.048 398.538L657.871 258.4L635.466 245.315C619.022 235.721 602.568 226.144 586.104 216.587C569.521 206.96 552.95 197.313 536.392 187.645C523.876 180.33 508.76 171.525 502.801 168.077C496.841 164.629 489.752 160.473 487.047 158.842C484.342 157.21 478.032 153.519 473.026 150.641C468.02 147.761 455.259 140.354 444.669 134.18C418.981 119.201 408.071 112.968 407.6 113C407.386 113.014 402.012 116.113 395.657 119.886ZM405.81 149.285C404.655 149.989 399.141 153.247 393.557 156.523C382.118 163.244 370.682 169.97 359.249 176.701C333.368 191.934 321.616 198.831 304.985 208.545C290.026 217.283 283.687 221 274.528 226.4C270.099 229.012 259.859 234.998 251.773 239.703C243.686 244.408 234.929 249.505 232.314 251.031L227.559 253.804L238.266 259.968C244.154 263.358 254.272 269.297 260.751 273.166L272.529 280.201L281.406 274.909C286.287 271.999 301.782 262.844 315.838 254.565C329.894 246.286 347.538 235.891 355.048 231.466C362.557 227.04 374.372 220.098 381.304 216.038C388.015 212.108 394.716 208.162 401.407 204.197L408.905 199.739L411.559 201.467C413.018 202.417 419.883 206.47 426.815 210.473C437.097 216.411 477.161 239.928 518.887 264.516C523.549 267.262 528.217 269.998 532.891 272.724C542.123 278.101 556.238 286.388 570.328 294.702L582.253 301.738L582.603 383.236L582.953 464.735L599.057 474.377C607.914 479.681 618.138 485.841 621.777 488.067C625.415 490.294 628.645 492.221 628.953 492.349C629.262 492.478 629.514 443.904 629.514 384.408V276.234L624.788 273.597C622.189 272.147 605.568 262.463 587.854 252.078C570.14 241.692 553.756 232.1 551.445 230.762C549.135 229.424 546.299 227.745 545.144 227.033C543.988 226.32 541.783 225.056 540.243 224.224C538.702 223.392 534.921 221.224 531.841 219.406C528.76 217.589 517.417 210.972 506.634 204.702C495.852 198.432 482.619 190.717 477.227 187.557C466.615 181.353 455.996 175.162 445.37 168.982C433.239 161.925 420.228 154.314 416.455 152.067C408.805 147.512 408.747 147.496 405.81 149.285ZM159 409.539V543.598L161.626 541.921C163.963 540.428 185.104 527.933 219.215 507.884C236.093 497.963 248.8 490.479 256.132 486.138L262.592 482.313L262.608 409.054L262.625 335.794L253.698 330.551C248.788 327.667 237.682 321.276 229.017 316.348C220.352 311.421 207.119 303.768 199.61 299.345C192.101 294.92 183.121 289.654 179.655 287.641C175.153 285.021 170.66 282.384 166.177 279.732L159 275.48V409.539ZM397.369 287.537C385.112 294.699 357.481 310.737 334.043 324.294C319.032 332.976 304.225 341.604 299.909 344.184L297.634 345.544V472.112L309.362 479.036C315.811 482.843 328.809 490.461 338.244 495.964C347.678 501.467 361.069 509.334 368.001 513.446C383.946 522.905 405.314 535.412 407.42 536.518C408.877 537.282 410.376 536.58 423.173 529.142C440.66 518.979 445.988 515.861 457.973 508.778C473.669 499.5 484.938 493.166 485.748 493.166C486.169 493.166 492.301 496.573 499.374 500.737C506.448 504.901 514.67 509.645 517.645 511.279C520.621 512.913 523.217 514.513 523.415 514.834C523.905 515.626 410.761 583.488 408.952 583.488C408.205 583.488 385.806 570.668 352.247 551.034C337.801 542.582 320.797 532.728 300.084 520.802C293.923 517.255 285.542 512.423 281.461 510.064L274.04 505.776L245.402 522.653C186.872 557.145 176.093 563.48 173.534 564.89C172.093 565.684 170.912 566.531 170.908 566.772C170.903 567.212 175.758 570.129 196.459 582.124C202.621 585.694 211.128 590.66 215.364 593.158C219.6 595.656 224.168 598.319 225.516 599.076C228.479 600.74 271.647 625.884 282.93 632.519C304.254 645.056 344.771 668.725 351.197 672.398C352.352 673.058 365.809 680.889 381.101 689.799L408.905 706L415.409 701.949C422.169 697.739 435.525 689.743 465.324 672.065C474.952 666.354 493.699 655.168 506.984 647.207C520.27 639.246 536.654 629.472 543.393 625.487C550.132 621.501 570.455 609.389 588.554 598.57C606.654 587.752 628.621 574.655 637.37 569.466C646.119 564.277 653.288 559.823 653.299 559.569C653.324 559.026 624.784 542.178 623.84 542.178C623.489 542.178 619.345 544.598 614.63 547.556C609.916 550.515 596.449 558.668 584.703 565.675C561.436 579.556 482.177 627.071 476.527 630.526C463.534 638.472 410.145 670.436 409.366 670.735C408.839 670.937 400.734 666.626 391.355 661.154C349.07 636.492 306.744 611.903 264.376 587.386C223.147 563.526 226.691 565.788 228.828 564.692C229.894 564.146 239.807 558.538 250.856 552.231C261.905 545.925 271.426 540.581 272.014 540.354C272.646 540.112 276.889 542.212 282.383 545.485C293.765 552.267 300.91 556.445 360.613 591.221C386.587 606.351 408.178 618.729 408.592 618.729C409.006 618.729 420.995 611.702 435.234 603.112C456.818 590.091 478.401 577.068 499.983 564.045C521.356 551.148 548.066 535.068 559.339 528.313L579.836 516.03L575.443 513.472C573.027 512.066 562.228 505.712 551.445 499.355C540.663 492.996 529.95 486.686 527.64 485.33C519.643 480.631 511.648 475.928 503.655 471.222L483.871 459.577L473.547 465.613C467.87 468.934 456.765 475.498 448.87 480.2C440.976 484.902 429.791 491.519 424.014 494.903C418.238 498.288 412.506 501.658 411.278 502.393L409.045 503.731L399.725 498.336C392.985 494.422 386.261 490.48 379.554 486.51C373.585 482.973 359.17 474.481 347.521 467.639L326.341 455.199L326.35 409.241L326.36 363.284L335.978 357.721C354.093 347.241 381.304 331.28 394.656 323.301C408.828 314.833 409.455 314.596 412.354 316.621C414.577 318.174 435.032 330.441 461.473 346.077C472.064 352.339 482.461 358.62 484.579 360.035L488.43 362.607L488.611 401.231L488.792 439.854L498.413 445.426C503.705 448.491 509.61 451.864 511.536 452.921C513.461 453.979 515.431 455.156 515.912 455.536C516.61 456.088 516.783 444.948 516.769 400.304L516.753 344.38L510.993 340.942C504.572 337.11 464.684 313.589 458.673 310.09C453.417 307.02 448.166 303.943 442.919 300.859C415.402 284.697 409.071 281.014 408.809 281.014C408.658 281.014 403.509 283.949 397.369 287.537ZM187.007 409.082C187.007 501.592 186.733 495.106 190.508 492.123C191.085 491.666 198.805 486.92 207.662 481.575C216.519 476.23 225.656 470.709 227.967 469.305L232.168 466.754L232.347 408.921L232.526 351.089L223.945 346.076C216.525 341.73 209.114 337.37 201.71 332.996C194.201 328.56 187.82 324.799 187.532 324.636C187.243 324.475 187.007 362.475 187.007 409.082Z" fill="white"/>
</svg>
