<?xml version="1.0" standalone="no"?>
<!DOCTYPE svg PUBLIC "-//W3C//DTD SVG 20010904//EN"
 "http://www.w3.org/TR/2001/REC-SVG-20010904/DTD/svg10.dtd">
<svg version="1.0" xmlns="http://www.w3.org/2000/svg"
 width="350.000000pt" height="350.000000pt" viewBox="0 0 350.000000 350.000000"
 preserveAspectRatio="xMidYMid meet">

<g transform="translate(0.000000,350.000000) scale(0.100000,-0.100000)"
fill="#000000" stroke="none">
<path d="M278 3376 c-73 -20 -124 -61 -155 -125 l-28 -56 -3 -1415 c-1 -974 1
-1431 8 -1467 17 -78 61 -137 128 -170 l57 -28 1440 -3 c992 -1 1456 1 1492 8
78 17 137 61 170 128 l28 57 3 1415 c1 974 -1 1431 -8 1467 -17 78 -61 137
-128 170 l-57 28 -1450 2 c-1148 1 -1460 -1 -1497 -11z m1625 -283 c73 -42
220 -127 327 -188 685 -393 722 -415 717 -429 -4 -13 -87 -64 -106 -65 -13 -1
-128 62 -381 209 -63 37 -245 143 -403 234 l-288 167 -137 -79 c-75 -44 -240
-139 -367 -212 -309 -178 -395 -230 -395 -238 0 -8 171 -112 185 -112 4 0 85
45 179 99 94 55 250 145 345 200 96 56 181 101 188 101 14 0 95 -45 413 -230
211 -123 369 -214 412 -239 16 -9 27 -20 25 -25 -2 -5 -98 -62 -215 -127
l-212 -119 -43 21 c-23 12 -114 64 -203 115 -89 52 -167 94 -175 94 -7 0 -36
-14 -64 -30 -27 -17 -126 -74 -220 -128 l-170 -98 -3 -266 -2 -266 102 -60
c278 -162 352 -203 365 -198 17 7 300 168 357 204 21 13 47 22 57 19 36 -9
419 -232 419 -244 0 -6 -19 -22 -42 -36 -24 -13 -97 -56 -163 -94 -376 -219
-628 -363 -637 -363 -5 0 -136 74 -291 163 -155 90 -312 181 -349 201 l-68 38
-90 -52 c-49 -28 -92 -55 -95 -60 -4 -7 194 -125 730 -434 82 -47 156 -86 164
-86 13 0 305 165 844 479 115 67 215 121 224 121 26 0 126 -61 116 -71 -5 -5
-173 -104 -374 -220 -200 -116 -464 -269 -587 -340 l-224 -129 -271 157 c-640
369 -881 511 -884 519 -3 9 414 256 442 262 8 2 101 -47 207 -109 363 -211
433 -251 471 -271 l38 -19 67 37 c184 102 512 297 512 305 0 8 -120 82 -154
95 -9 3 -95 -40 -213 -108 -109 -62 -204 -114 -211 -116 -7 -2 -130 65 -275
149 -144 83 -274 159 -289 168 l-28 15 0 342 0 342 113 64 c61 35 191 110 288
166 97 56 182 102 189 102 7 0 87 -43 179 -97 91 -53 182 -105 202 -116 l35
-20 80 44 c43 25 79 51 79 58 0 8 -54 45 -120 84 -331 193 -445 257 -456 257
-13 0 -40 -15 -325 -181 -110 -64 -243 -139 -295 -167 l-94 -51 -55 31 c-30
17 -131 75 -224 130 -140 83 -166 102 -155 113 15 14 1136 663 1147 665 2 0
63 -34 135 -77z m-1128 -838 c94 -54 182 -107 198 -117 l27 -20 -2 -376 -3
-376 -75 -44 c-41 -25 -143 -84 -226 -132 l-152 -88 -3 401 c-2 221 -2 511 0
645 l3 242 32 -19 c17 -10 108 -62 201 -116z"/>
<path d="M667 2077 c-8 -101 -7 -529 2 -655 l6 -93 95 55 95 54 3 306 2 305
-67 39 c-38 22 -82 47 -99 55 l-31 16 -6 -82z"/>
</g>
</svg>
